<svg width="33" height="33" viewBox="0 0 33 33" fill="none" xmlns="http://www.w3.org/2000/svg">
<path fill-rule="evenodd" clip-rule="evenodd" d="M13.4831 6.52309C14.3426 5.66355 15.5084 5.18066 16.724 5.18066C17.9395 5.18066 19.1053 5.66355 19.9649 6.52309C20.8244 7.38263 21.3073 8.54842 21.3073 9.764V14.3473H12.1406V9.764C12.1406 8.54842 12.6235 7.38263 13.4831 6.52309ZM10.6406 14.3473V9.764C10.6406 8.1506 11.2815 6.60328 12.4224 5.46243C13.5632 4.32158 15.1106 3.68066 16.724 3.68066C18.3374 3.68066 19.8847 4.32158 21.0255 5.46243C22.1664 6.60328 22.8073 8.1506 22.8073 9.764V14.3473H23.3906C25.2776 14.3473 26.8073 15.877 26.8073 17.764V25.764C26.8073 27.651 25.2776 29.1807 23.3906 29.1807H10.0573C8.17032 29.1807 6.64062 27.651 6.64062 25.764V17.764C6.64062 15.877 8.17032 14.3473 10.0573 14.3473H10.6406ZM22.0573 15.8473H23.3906C24.4492 15.8473 25.3073 16.7055 25.3073 17.764V25.764C25.3073 26.8225 24.4492 27.6807 23.3906 27.6807H10.0573C8.99875 27.6807 8.14062 26.8225 8.14062 25.764V17.764C8.14062 16.7055 8.99875 15.8473 10.0573 15.8473H11.3906H22.0573ZM16.724 21.1807C16.4018 21.1807 16.1406 21.4418 16.1406 21.764C16.1406 22.0862 16.4018 22.3473 16.724 22.3473C17.0461 22.3473 17.3073 22.0862 17.3073 21.764C17.3073 21.4418 17.0461 21.1807 16.724 21.1807ZM14.6406 21.764C14.6406 20.6134 15.5734 19.6807 16.724 19.6807C17.8746 19.6807 18.8073 20.6134 18.8073 21.764C18.8073 22.9146 17.8746 23.8473 16.724 23.8473C15.5734 23.8473 14.6406 22.9146 14.6406 21.764Z" fill="#121212"/>
</svg>
