<svg width="33" height="33" viewBox="0 0 33 33" fill="none" xmlns="http://www.w3.org/2000/svg">
<path fill-rule="evenodd" clip-rule="evenodd" d="M3.16797 6.4165C2.75376 6.4165 2.41797 6.75229 2.41797 7.1665C2.41797 7.58072 2.75376 7.9165 3.16797 7.9165H17.0846V8.49984V15.1665V22.4165H13.1687C12.8269 20.8903 11.464 19.7498 9.83463 19.7498C8.20532 19.7498 6.84237 20.8903 6.50054 22.4165H5.2513V17.8332C5.2513 17.419 4.91552 17.0832 4.5013 17.0832C4.08709 17.0832 3.7513 17.419 3.7513 17.8332V23.1665C3.7513 23.5807 4.08709 23.9165 4.5013 23.9165H6.50055C6.84237 25.4427 8.20532 26.5832 9.83463 26.5832C11.464 26.5832 12.8269 25.4427 13.1687 23.9165H17.8346H19.8339C20.1757 25.4427 21.5387 26.5832 23.168 26.5832C24.7973 26.5832 26.1602 25.4427 26.5021 23.9165H28.5013C28.9155 23.9165 29.2513 23.5807 29.2513 23.1665V15.1788C29.2525 15.1079 29.2437 15.0365 29.2244 14.9666C29.205 14.8964 29.1757 14.8304 29.1381 14.7701L25.1444 8.11397C25.0089 7.88806 24.7647 7.74984 24.5013 7.74984H18.5846V7.1665C18.5846 6.75229 18.2488 6.4165 17.8346 6.4165H3.16797ZM26.5021 22.4165H27.7513V15.9165H18.5846V22.4165H19.8339C20.1757 20.8903 21.5387 19.7498 23.168 19.7498C24.7973 19.7498 26.1602 20.8903 26.5021 22.4165ZM7.91797 23.1672C7.91836 24.2254 8.77633 25.0832 9.83463 25.0832C10.8932 25.0832 11.7513 24.225 11.7513 23.1665C11.7513 22.108 10.8932 21.2498 9.83463 21.2498C8.77609 21.2498 7.91797 22.108 7.91797 23.1665C7.91797 23.1667 7.91797 23.167 7.91797 23.1672ZM18.5846 14.4165V9.24984H24.0767L27.1767 14.4165H18.5846ZM23.168 21.2498C22.1094 21.2498 21.2513 22.108 21.2513 23.1665C21.2513 24.225 22.1094 25.0832 23.168 25.0832C24.2265 25.0832 25.0846 24.225 25.0846 23.1665C25.0846 22.108 24.2265 21.2498 23.168 21.2498Z" fill="#121212"/>
</svg>
